HIERARCHY
ROOT Hips
{
     OFFSET 1.88212 96.90440 -13.34250
     CHANNELS 6 Xposition Yposition Zposition Zrotation Xrotation Yrotation
     JOINT Spine
     {
          OFFSET 0.00000 11.89050 0.00000
          CHANNELS 3 Zrotation Xrotation Yrotation
          JOINT Spine1
          {
               OFFSET -0.00000 25.65740 0.12766
               CHANNELS 3 Zrotation Xrotation Yrotation
               JOINT HEad
               {
                    OFFSET 0.00000 8.73416 0.01134
                    CHANNELS 3 Zrotation Xrotation Yrotation
                    End Site
                    {
                         OFFSET -0.29000 12.77420 2.51395
                    }
               }
               JOINT LeftShoulder1
               {
                    OFFSET 8.99000 -0.36225 -0.22000
                    CHANNELS 3 Zrotation Xrotation Yrotation
                    JOINT LeftArm
                    {
                         OFFSET 10.28270 -0.00338 0.32212
                         CHANNELS 3 Zrotation Xrotation Yrotation
                         JOINT LeftForeArm
                         {
                              OFFSET 32.76690 0.09914 -1.42434
                              CHANNELS 3 Zrotation Xrotation Yrotation
                              JOINT LeftHand
                              {
                                   OFFSET 27.56430 0.08536 1.02216
                                   CHANNELS 3 Zrotation Xrotation Yrotation
                                   End Site
                                   {
                                        OFFSET 16.74430 -0.60000 1.50291
                                   }
                              }
                         }
                    }
               }
               JOINT RightShoulder
               {
                    OFFSET -8.99000 -0.36225 -0.22000
                    CHANNELS 3 Zrotation Xrotation Yrotation
                    JOINT RightArm
                    {
                         OFFSET -10.28270 -0.00338 0.32212
                         CHANNELS 3 Zrotation Xrotation Yrotation
                         JOINT RightForeArm
                         {
                              OFFSET -32.89710 0.09914 -1.42434
                              CHANNELS 3 Zrotation Xrotation Yrotation
                              JOINT RightHand
                              {
                                   OFFSET -27.49210 0.08536 1.02216
                                   CHANNELS 3 Zrotation Xrotation Yrotation
                                   End Site
                                   {
                                        OFFSET -16.63120 -0.60000 1.50291
                                   }
                              }
                         }
                    }
               }
          }
     }
     JOINT LeftUpLeg
     {
          OFFSET 8.94580 -8.66707 0.10165
          CHANNELS 3 Zrotation Xrotation Yrotation
          JOINT LeftLeg
          {
               OFFSET 0.00000 -44.42270 1.37270
               CHANNELS 3 Zrotation Xrotation Yrotation
               JOINT LeftFoot
               {
                    OFFSET -0.25355 -42.09240 -1.46059
                    CHANNELS 3 Zrotation Xrotation Yrotation
                    JOINT LeftToes
                    {
                         OFFSET -0.04000 -4.41509 8.49910
                         CHANNELS 3 Zrotation Xrotation Yrotation
                         End Site
                         {
                              OFFSET 0.08000 -0.04745 9.77979
                         }
                    }
               }
          }
     }
     JOINT RightUpLeg
     {
          OFFSET -8.94580 -8.66707 0.10165
          CHANNELS 3 Zrotation Xrotation Yrotation
          JOINT RightLeg
          {
               OFFSET 0.00000 -44.42270 1.37270
               CHANNELS 3 Zrotation Xrotation Yrotation
               JOINT RightFoot
               {
                    OFFSET 0.25355 -42.09240 -1.46059
                    CHANNELS 3 Zrotation Xrotation Yrotation
                    JOINT RightToes
                    {
                         OFFSET 0.04000 -4.41509 8.49910
                         CHANNELS 3 Zrotation Xrotation Yrotation
                         End Site
                         {
                              OFFSET -0.08000 -0.13745 9.77979
                         }
                    }
               }
          }
     }
}
MOTION
Frames: 15
Frame Time: 0.01667
44.52795 66.88686 -127.86552 5.87738 -5.76059 -5.54221 -26.44986 62.70727 14.38433 0.01785 0.05085 -0.07702 -20.09758 -13.22192 10.17639 5.96888 9.43240 -6.89407 -121.53590 -58.67074 -103.42225 -60.36611 54.43549 -79.90993 3.37456 17.22558 -2.81319 11.16599 -0.13962 -8.15995 75.53224 -22.75061 71.64450 33.51648 47.28499 107.68416 -6.76446 13.33586 -1.09800 11.82962 -63.70282 12.61952 43.45301 63.46131 -51.35901 -8.91292 0.01267 0.00264 -9.55567 -20.67123 -0.40726 -41.14820 -48.05578 -7.87837 130.70453 80.74654 -121.21267 8.14985 -0.00036 -0.00035 -1.42223 -44.44814 -5.43184 
44.45197 64.72574 -128.64789 5.60010 -5.93581 -5.32787 -29.46406 67.32928 14.87853 0.01358 0.05834 -0.06504 -20.19880 -17.38613 11.21271 5.46584 5.67173 -3.26409 -117.14666 -58.79026 -97.78486 -61.45855 54.46936 -80.23180 6.13569 14.12825 -2.01287 11.74762 -2.43683 -5.28340 73.04546 -22.71401 69.40857 31.42482 46.54602 110.90301 -5.21591 11.33685 -2.82192 9.29372 -63.39190 8.50554 42.97794 62.59456 -48.76887 -9.75241 0.00602 0.00578 -11.29872 -13.66453 -3.22796 -42.22575 -49.23532 -9.80867 143.19963 80.02978 -133.30467 7.94092 -0.00096 0.00013 -2.05181 -45.79794 -5.18934 
44.51372 62.41576 -129.35846 5.27676 -6.11786 -5.28556 -32.12305 70.52454 15.45712 -0.00039 -0.03107 0.00136 -20.12927 -20.18072 12.37001 4.48810 3.40619 -0.32355 -113.52443 -58.85795 -93.68221 -61.38533 54.84107 -81.77490 4.68494 18.73415 -3.54545 11.93844 -3.28458 -2.49700 71.60331 -22.69042 68.26053 29.81188 46.25202 113.05893 -5.77562 11.86586 0.06271 7.15944 -63.19711 4.82464 42.82592 61.88546 -46.52078 -10.51360 0.00158 0.00641 -13.30125 -16.25544 -2.47498 -43.00780 -50.39263 -11.47317 153.34465 79.10724 -143.18523 7.83082 -0.00211 0.00058 -2.96298 -47.12093 -5.35277 
44.67277 60.27377 -129.93260 4.96252 -6.27934 -5.34543 -34.32816 72.53535 15.95899 -0.00424 -0.02597 0.00783 -19.90984 -22.04785 13.59221 3.24391 2.09407 2.16914 -110.57066 -58.72425 -90.67815 -60.46981 55.24385 -83.95195 6.52980 16.05289 -2.57231 12.12710 -3.24136 0.05040 70.51939 -22.45552 67.89565 28.41537 46.22141 114.47458 -4.90244 10.81751 -1.09559 5.36948 -63.25536 1.57250 43.33001 61.47930 -44.99725 -11.22958 -0.00076 0.00507 -14.88546 -14.65153 -3.80737 -43.68868 -51.55313 -12.98118 162.13959 78.01078 -151.78520 7.90919 -0.00321 0.00083 -3.67696 -48.19481 -5.59797 
44.92738 58.18917 -130.36475 4.69329 -6.40456 -5.42988 -36.02224 73.59921 16.27445 -0.00766 -0.01749 0.00888 -19.56856 -23.05876 14.76451 1.81755 1.47904 4.15455 -108.06890 -58.49580 -88.40624 -58.96535 55.63419 -86.38799 5.66553 18.11601 -2.77963 11.95684 -2.52925 2.44268 69.94488 -22.21160 67.95474 27.18048 46.33286 115.36874 -5.46215 10.94224 0.48827 3.66974 -63.96929 -1.46372 45.43895 61.65163 -45.25672 -12.10911 0.00244 0.00316 -16.16719 -15.06610 -3.74865 -44.40490 -52.70911 -14.41718 170.07314 76.70136 -159.56107 8.23652 -0.00372 0.00164 -4.30966 -49.23964 -5.74378 
45.26234 55.87829 -130.63960 4.52105 -6.50568 -5.43388 -37.20122 73.92252 16.35864 -0.00763 -0.01268 0.00710 -19.16142 -23.34398 15.78391 0.11920 1.36874 5.80276 -105.60692 -57.91665 -86.47690 -56.93104 55.80314 -88.79083 7.26789 15.95444 -1.98791 6.12643 5.07593 13.04765 73.71850 -28.78598 73.15092 27.42586 47.83487 113.80318 3.46350 -2.01707 0.46532 1.68317 -65.52566 -4.60931 49.45111 62.64392 -47.71238 -13.04695 0.00466 -0.00108 -17.56372 -14.93107 -4.49756 -45.35564 -53.88188 -15.88198 177.44078 74.97574 -166.78505 8.89639 -0.00377 0.00430 -5.39619 -50.17660 -7.06463 
45.62725 53.62336 -130.80037 4.45899 -6.59745 -5.32106 -37.98826 73.69584 16.31781 -0.00610 -0.00480 0.00991 -18.72472 -23.06821 16.55980 -1.54587 1.59665 7.05642 -103.35600 -57.20794 -84.81217 -54.53442 55.79241 -91.19343 6.54680 16.97095 -1.99862 6.06059 5.62105 13.95461 68.78626 -22.53954 73.72694 25.55276 44.73172 112.85251 -6.13286 13.54964 1.25918 -0.94442 -67.78252 -8.19217 55.51709 64.24108 -52.55750 -13.99075 0.00618 -0.00512 -18.60236 -15.58273 -4.84964 -46.69127 -55.18217 -17.47888 184.26277 72.45314 -173.42705 10.01975 -0.00148 0.01226 -6.87410 -51.72673 -8.19154 
45.99340 51.41133 -130.80971 4.51347 -6.69677 -5.08443 -42.47243 72.73058 20.66057 -0.10322 0.00703 0.05906 -17.23181 -22.23706 16.35829 -1.69720 2.00286 7.24325 -101.31749 -56.45276 -83.33607 -51.96365 55.57146 -93.46838 7.35237 15.44415 -1.67429 7.34219 6.29012 14.34199 65.62277 -19.17869 73.97437 24.47465 42.70416 112.79948 -1.60956 5.93303 -0.28133 -4.10924 -70.63274 -12.11870 64.99743 67.54941 -60.61065 -13.81746 -0.00813 -0.00607 -20.04473 -16.67231 -6.68800 -48.35110 -56.55737 -19.14073 189.60583 69.33899 -178.60327 11.49223 0.00378 0.01964 -9.04778 -53.47137 -10.00419 
46.40422 49.10844 -130.56183 4.70020 -6.82461 -4.70768 -48.49657 70.82895 27.26207 -0.09480 -0.00522 0.06208 -15.08492 -20.80820 15.32226 -1.12740 2.61268 6.75620 -99.04353 -55.28061 -81.62630 -45.14882 50.73866 -99.11909 2.52501 13.08652 -1.46073 9.26644 7.06334 14.25448 63.92394 -17.64495 73.82072 23.91989 41.48738 113.12692 -6.39865 13.91737 0.74371 -4.48813 -74.25016 -12.98319 77.97347 71.25152 -73.20626 -12.51030 -0.02705 0.01782 -21.80160 -18.28713 -9.05792 -50.28727 -57.88207 -20.78688 193.70992 65.80858 -182.56718 13.34406 0.01009 0.02866 -39.71798 -53.21843 -40.65480 
46.73841 46.96464 -130.12688 5.02015 -7.01246 -4.21372 -54.28053 67.99915 34.33683 -0.08009 -0.00879 0.06046 -12.48045 -20.36631 13.05783 0.41837 3.59698 5.42456 -97.18485 -53.79810 -80.08960 -40.58363 48.25651 -102.58092 0.59334 10.38416 -1.19958 11.91035 7.93888 13.20268 63.20980 -16.90922 73.51520 23.48836 41.04966 113.73952 -3.05106 9.26346 -0.45600 0.39358 -78.10271 -8.21760 95.19830 74.34264 -91.10561 -10.03441 -0.05231 0.04788 -23.80050 -19.44627 -11.89546 -51.07385 -58.65901 -20.28207 195.26430 62.81040 -184.28392 15.62420 0.01840 0.03944 -28.35316 -56.49446 -28.32396 
47.00716 44.98896 -129.48653 5.43019 -7.27376 -3.63141 -57.32288 65.18722 38.66726 0.01832 0.00659 -0.01406 -10.45518 -21.17650 10.56980 1.54434 4.68678 4.17613 -95.67923 -52.18534 -78.90759 -37.15524 47.09401 -104.88647 -0.32176 9.80139 -1.25910 6.92065 4.61887 21.16388 69.15047 -23.28756 67.23180 22.71432 41.43336 115.17636 -6.02436 13.44939 0.24966 16.79898 -81.21714 8.46222 116.07701 76.16370 -113.75126 -6.39993 -0.06680 0.07837 -25.66646 -20.73478 -14.36487 -50.68860 -58.84210 -17.79427 195.45250 60.35330 -184.83781 18.30658 0.02914 0.05087 -36.53954 -57.44672 -36.21277 
47.41237 43.29282 -128.54265 5.88413 -7.59507 -2.96844 -58.54187 62.53822 41.21365 0.02280 0.00941 -0.01277 -8.84413 -22.97967 7.72633 -5.70009 -2.14581 6.73848 -77.79761 -46.37129 -68.14711 -34.84967 46.25921 -105.88802 -0.29155 8.96280 -1.73416 9.50648 6.05651 19.04451 69.05133 -22.17452 71.11425 23.00227 44.58760 116.42941 6.21382 7.14908 8.14393 45.41527 -81.89666 37.86274 137.75888 76.42277 -137.80278 -1.68099 -0.06769 0.10559 -27.65669 -22.27172 -16.71331 -49.53247 -58.18938 -13.91675 195.16359 58.56078 -184.92708 21.40143 0.04342 0.06186 -35.47703 -59.62492 -33.79608 
47.85897 41.91905 -127.46763 6.35089 -7.98376 -2.24049 -58.57093 60.06205 42.63265 0.02020 0.01272 -0.01118 -7.55661 -25.62450 4.74207 -4.23002 -0.04369 5.94866 -83.63967 -43.78753 -75.09148 -35.06965 46.96587 -101.58939 -0.18713 9.23887 -1.56013 11.79419 7.43628 17.32491 68.90669 -22.09385 73.43017 23.80383 46.34223 116.93357 -3.80401 10.81611 -3.33536 65.67323 -79.97382 59.41084 149.95967 75.65376 -152.54041 2.38470 -0.03416 0.06289 -29.04888 -22.91830 -18.06758 -47.96843 -56.59237 -9.20921 194.67540 57.51934 -184.80568 24.80330 0.05759 0.06707 -39.64530 -61.52623 -36.72869 
48.41174 40.91118 -126.30223 6.78873 -8.41792 -1.46288 -57.70717 57.75785 43.19893 0.02091 0.01241 -0.01405 -6.41813 -29.00678 1.74356 -3.01626 1.97416 5.04687 -86.94283 -41.90119 -78.96266 -35.05383 47.67686 -99.65467 0.18099 8.81681 -1.72590 14.35428 8.92381 15.30954 69.89661 -22.63736 79.00357 28.61955 47.55809 112.04474 0.02300 9.13623 1.99944 72.95728 -77.40547 68.40028 157.23131 75.01520 -161.96007 6.19382 -0.02391 0.04137 -30.16614 -23.50228 -19.04954 -46.42279 -54.04181 -4.32286 194.10997 57.29161 -184.62749 28.39208 0.06834 0.06541 -41.37049 -63.75621 -36.63033 
49.36527 40.56999 -125.03524 7.15868 -8.89209 -0.67092 -56.14514 55.59285 43.07951 0.01971 0.01110 -0.01557 -5.12690 -32.97610 -1.18723 -2.02318 3.67973 4.04622 -91.60203 -38.79668 -85.89172 -33.12593 48.15762 -100.92117 8.69073 15.47885 -14.48480 17.06332 10.10954 13.31342 72.68736 -23.76806 86.21300 30.60359 49.72936 111.46356 -7.42897 8.58206 -7.19600 73.08372 -75.36848 70.59835 162.70389 74.56989 -168.72009 9.91474 -0.01616 0.03914 -31.05080 -23.90220 -19.78547 -45.30732 -50.54278 0.12427 193.73820 58.15629 -184.64452 32.05508 0.07157 0.05141 -43.63725 -65.73308 -37.11367 
